<svg xmlns="http://www.w3.org/2000/svg" xmlns:xlink="http://www.w3.org/1999/xlink" preserveAspectRatio="xMidYMid" width="64.68" height="66" viewBox="0 0 43.12 44">
  <defs>
    <style>
      .cls-1 {
        fill: #00d661;
        fill-rule: evenodd;
      }
    </style>
  </defs>
  <path d="M41.756,21.443 L41.752,21.443 L41.483,21.605 L38.961,21.605 L38.444,22.311 L38.357,22.329 C38.340,22.589 38.431,22.841 38.631,23.040 L40.368,24.762 C40.623,25.016 40.764,25.353 40.764,25.710 C40.764,26.069 40.623,26.406 40.368,26.659 L38.167,28.842 L38.154,28.861 L38.145,28.861 C37.634,29.360 36.750,29.360 36.241,28.855 L34.504,27.132 C34.225,26.856 33.841,26.779 33.476,26.930 C33.111,27.080 32.894,27.402 32.894,27.794 L32.894,30.230 C32.894,30.940 32.331,31.509 31.627,31.555 L31.321,31.969 L28.188,31.969 L27.909,31.471 C27.412,31.272 27.059,30.794 27.059,30.230 L27.059,27.794 C27.059,27.402 26.841,27.080 26.476,26.930 C26.111,26.780 25.727,26.856 25.448,27.132 L25.116,27.462 L25.116,40.767 C25.116,42.547 23.654,43.997 21.859,43.997 L3.241,43.997 C1.447,43.997 -0.014,42.547 -0.014,40.767 L-0.014,3.244 C-0.014,1.465 1.447,0.016 3.241,0.016 L21.860,0.016 C23.654,0.016 25.116,1.465 25.116,3.244 L25.116,9.635 L25.448,9.965 C25.727,10.242 26.113,10.319 26.476,10.168 C26.841,10.019 27.059,9.696 27.059,9.304 L27.059,6.867 C27.059,6.128 27.665,5.526 28.411,5.526 L31.543,5.526 C32.288,5.526 32.895,6.128 32.895,6.867 L32.895,9.304 C32.895,9.696 33.112,10.019 33.477,10.168 C33.841,10.319 34.226,10.242 34.505,9.965 L36.242,8.243 C36.753,7.736 37.644,7.736 38.154,8.243 L40.369,10.439 C40.554,10.623 40.653,10.857 40.708,11.105 L40.739,11.133 L40.739,11.259 C40.743,11.303 40.764,11.343 40.764,11.388 C40.764,11.433 40.743,11.473 40.739,11.517 L40.739,11.929 L40.446,12.221 C40.416,12.257 40.402,12.302 40.369,12.336 L38.631,14.058 C38.353,14.335 38.276,14.716 38.427,15.078 C38.578,15.440 38.904,15.655 39.299,15.655 L41.756,15.655 C42.501,15.655 43.108,16.257 43.108,16.996 L43.108,20.102 C43.108,20.841 42.501,21.443 41.756,21.443 ZM23.638,3.244 C23.638,2.272 22.840,1.482 21.859,1.482 L3.241,1.482 C2.261,1.482 1.464,2.272 1.464,3.244 L1.464,4.414 L23.638,4.414 L23.638,3.244 ZM23.638,28.903 C23.118,29.349 22.289,29.341 21.799,28.855 L19.585,26.659 C19.329,26.405 19.189,26.069 19.189,25.710 C19.189,25.353 19.329,25.016 19.585,24.762 L21.322,23.040 C21.600,22.763 21.677,22.382 21.526,22.020 C21.375,21.658 21.049,21.443 20.655,21.443 L18.198,21.443 C17.452,21.443 16.846,20.841 16.846,20.102 L16.846,16.996 C16.846,16.257 17.452,15.655 18.198,15.655 L20.655,15.655 C21.049,15.655 21.375,15.440 21.526,15.078 C21.677,14.716 21.600,14.335 21.322,14.058 L19.585,12.336 C19.329,12.082 19.189,11.746 19.189,11.388 C19.189,11.029 19.329,10.692 19.585,10.439 L21.799,8.243 C22.288,7.758 23.118,7.750 23.638,8.195 L23.638,5.880 L1.464,5.880 L1.464,33.734 L23.638,33.734 L23.638,28.903 ZM22.506,22.894 L22.494,22.875 C22.490,22.890 22.484,22.903 22.479,22.917 L22.506,22.894 ZM21.517,16.401 C21.255,16.532 20.968,16.620 20.655,16.620 L18.198,16.620 C18.078,16.620 17.983,16.682 17.914,16.768 L21.311,16.768 L21.517,16.401 ZM23.638,35.200 L1.464,35.200 L1.464,40.767 C1.464,41.739 2.261,42.530 3.241,42.530 L21.860,42.530 C22.840,42.530 23.638,41.739 23.638,40.767 L23.638,35.200 ZM29.977,15.173 C28.100,15.173 26.572,16.688 26.572,18.549 C26.572,20.410 28.100,21.925 29.977,21.925 C31.853,21.925 33.381,20.410 33.381,18.549 C33.381,16.688 31.853,15.173 29.977,15.173 ZM33.297,11.108 L33.381,11.240 L34.377,11.240 L34.558,11.051 C34.162,11.214 33.726,11.236 33.297,11.108 ZM41.756,16.620 L39.299,16.620 C39.000,16.620 38.728,16.538 38.476,16.420 L38.655,16.768 L39.649,16.768 L41.024,16.768 L42.040,16.768 C41.970,16.682 41.875,16.620 41.756,16.620 ZM12.551,41.797 C10.920,41.797 9.594,40.482 9.594,38.865 C9.594,37.248 10.920,35.933 12.551,35.933 C14.181,35.933 15.507,37.248 15.507,38.865 C15.507,40.482 14.181,41.797 12.551,41.797 ZM12.551,37.399 C11.735,37.399 11.072,38.056 11.072,38.865 C11.072,39.674 11.735,40.331 12.551,40.331 C13.366,40.331 14.029,39.674 14.029,38.865 C14.029,38.056 13.366,37.399 12.551,37.399 ZM9.594,2.215 L12.551,2.215 C12.959,2.215 13.290,2.542 13.290,2.948 C13.290,3.353 12.959,3.681 12.551,3.681 L9.594,3.681 C9.185,3.681 8.855,3.353 8.855,2.948 C8.855,2.542 9.185,2.215 9.594,2.215 ZM14.768,2.215 L15.507,2.215 C15.916,2.215 16.246,2.542 16.246,2.948 C16.246,3.353 15.916,3.681 15.507,3.681 L14.768,3.681 C14.359,3.681 14.029,3.353 14.029,2.948 C14.029,2.542 14.359,2.215 14.768,2.215 Z" class="cls-1"/>
</svg>
