<svg xmlns="http://www.w3.org/2000/svg" xmlns:xlink="http://www.w3.org/1999/xlink" preserveAspectRatio="xMidYMid" width="78" height="57" viewBox="0 0 52 38">
  <defs>
    <style>
      .cls-1 {
        fill: #00d661;
        fill-rule: evenodd;
      }
    </style>
  </defs>
  <path d="M50.259,38.003 L1.734,38.003 C0.774,38.003 -0.007,37.217 -0.007,36.251 L-0.007,1.748 C-0.007,0.781 0.774,-0.005 1.734,-0.005 L50.259,-0.005 C51.219,-0.005 51.999,0.781 51.999,1.748 L51.999,36.251 C51.999,37.217 51.219,38.003 50.259,38.003 ZM50.344,1.748 C50.344,1.707 50.299,1.662 50.259,1.662 L1.734,1.662 C1.693,1.662 1.649,1.707 1.649,1.748 L1.649,36.251 C1.649,36.291 1.693,36.336 1.734,36.336 L50.259,36.336 C50.299,36.336 50.344,36.291 50.344,36.251 L50.344,1.748 ZM47.439,5.758 L16.499,5.758 C15.835,5.758 15.296,5.214 15.296,4.546 C15.296,3.878 15.835,3.335 16.499,3.335 L47.439,3.335 C48.103,3.335 48.642,3.878 48.642,4.546 C48.642,5.214 48.102,5.758 47.439,5.758 ZM12.102,5.758 C11.438,5.758 10.900,5.216 10.900,4.546 C10.900,3.877 11.438,3.335 12.102,3.335 C12.767,3.335 13.305,3.877 13.305,4.546 C13.305,5.216 12.767,5.758 12.102,5.758 ZM8.328,5.758 C7.664,5.758 7.125,5.216 7.125,4.546 C7.125,3.877 7.664,3.335 8.328,3.335 C8.993,3.335 9.531,3.877 9.531,4.546 C9.531,5.216 8.993,5.758 8.328,5.758 ZM4.554,5.758 C3.890,5.758 3.351,5.216 3.351,4.546 C3.351,3.877 3.890,3.335 4.554,3.335 C5.218,3.335 5.757,3.877 5.757,4.546 C5.757,5.216 5.218,5.758 4.554,5.758 ZM4.926,7.762 L47.067,7.762 C47.514,7.762 47.876,8.127 47.876,8.577 L47.876,33.557 C47.876,34.007 47.514,34.372 47.067,34.372 L4.926,34.372 C4.479,34.372 4.117,34.007 4.117,33.557 L4.117,8.577 C4.117,8.127 4.479,7.762 4.926,7.762 ZM4.747,32.922 C4.747,33.372 5.109,33.737 5.556,33.737 L46.437,33.737 C46.884,33.737 47.246,33.372 47.246,32.922 L47.246,9.212 C47.246,8.762 46.884,8.397 46.437,8.397 L5.556,8.397 C5.109,8.397 4.747,8.762 4.747,9.212 L4.747,32.922 ZM9.656,25.559 C10.344,25.559 10.982,25.766 11.528,26.107 L17.508,19.590 C17.063,18.991 16.791,18.257 16.791,17.454 C16.791,15.474 18.390,13.863 20.356,13.863 C22.322,13.863 23.921,15.474 23.921,17.454 C23.921,17.915 23.826,18.353 23.668,18.759 L29.965,22.806 C30.615,22.113 31.530,21.674 32.549,21.674 C33.161,21.674 33.728,21.844 34.232,22.119 L39.650,15.316 C39.110,14.687 38.772,13.878 38.772,12.984 C38.772,11.004 40.372,9.394 42.338,9.394 C44.303,9.394 45.903,11.004 45.903,12.984 C45.903,14.964 44.303,16.575 42.338,16.575 C41.739,16.575 41.183,16.411 40.687,16.147 L35.257,22.956 C35.784,23.582 36.115,24.381 36.115,25.265 C36.115,27.245 34.515,28.855 32.549,28.855 C30.584,28.855 28.985,27.245 28.985,25.265 C28.985,24.788 29.082,24.334 29.250,23.918 L22.964,19.883 C22.313,20.592 21.389,21.044 20.356,21.044 C19.661,21.044 19.017,20.835 18.468,20.487 L12.498,27.006 C12.946,27.606 13.221,28.343 13.221,29.149 C13.221,31.129 11.621,32.740 9.656,32.740 C7.690,32.740 6.090,31.129 6.090,29.149 C6.090,27.170 7.690,25.559 9.656,25.559 Z" class="cls-1"/>
</svg>
