<svg xmlns="http://www.w3.org/2000/svg" xmlns:xlink="http://www.w3.org/1999/xlink" preserveAspectRatio="xMidYMid" width="81" height="69.045" viewBox="0 0 54 46.03">
  <defs>
    <style>
      .cls-1 {
        fill: #00d661;
        fill-rule: evenodd;
      }
    </style>
  </defs>
  <path d="M53.220,24.659 L53.168,24.738 C52.905,25.141 52.860,25.644 53.047,26.086 L53.328,26.750 C53.902,28.107 53.632,29.678 52.640,30.752 L52.234,31.191 C51.816,31.644 51.736,32.314 52.039,32.857 C52.780,34.191 52.632,35.877 51.670,37.052 L50.989,37.884 C50.670,38.275 50.581,38.813 50.758,39.290 C51.417,41.072 50.807,43.067 49.275,44.141 L48.576,44.632 C47.910,45.098 47.132,45.345 46.326,45.345 L36.869,45.345 C33.307,45.345 29.771,44.812 26.358,43.759 L19.705,41.707 L17.547,41.707 L17.547,43.072 C17.547,44.701 16.258,46.027 14.672,46.027 L2.878,46.027 C1.293,46.027 0.003,44.701 0.003,43.072 L0.003,17.304 C0.003,15.674 1.293,14.348 2.878,14.348 L14.672,14.348 C16.258,14.348 17.547,15.674 17.547,17.304 L17.547,18.062 L19.072,18.062 C20.083,18.062 21.065,17.690 21.834,17.016 L27.301,12.230 C28.787,10.929 29.986,9.270 30.770,7.433 L32.843,2.570 C33.140,1.874 33.630,1.299 34.260,0.904 L34.806,0.562 C36.074,-0.231 37.655,-0.147 38.836,0.776 L39.774,1.510 C40.496,2.076 40.978,2.889 41.132,3.801 C41.419,5.507 41.582,9.330 39.455,15.756 C39.313,16.186 39.379,16.646 39.638,17.018 C39.899,17.392 40.304,17.607 40.751,17.607 L50.120,17.607 C51.057,17.607 51.943,17.977 52.616,18.650 C54.205,20.241 54.459,22.768 53.220,24.659 ZM15.336,17.304 C15.336,16.927 15.038,16.622 14.672,16.622 L2.878,16.622 C2.512,16.622 2.214,16.927 2.214,17.304 L2.214,43.072 C2.214,43.448 2.512,43.754 2.878,43.754 L14.672,43.754 C15.038,43.754 15.336,43.448 15.336,43.072 L15.336,17.304 ZM51.073,20.279 C50.816,20.022 50.477,19.880 50.120,19.880 L40.751,19.880 C39.599,19.880 38.511,19.305 37.840,18.341 C37.161,17.367 36.986,16.157 37.361,15.024 C39.330,9.075 39.203,5.681 38.952,4.188 C38.894,3.845 38.710,3.536 38.434,3.319 L37.496,2.586 C37.046,2.233 36.441,2.200 35.957,2.504 L35.411,2.846 C35.169,2.997 34.982,3.217 34.868,3.483 L32.796,8.345 C31.878,10.496 30.474,12.438 28.735,13.961 L23.268,18.747 C22.099,19.771 20.608,20.335 19.072,20.335 L17.951,20.335 L17.951,39.434 L20.030,39.434 L26.994,41.581 C30.200,42.570 33.522,43.072 36.869,43.072 L46.326,43.072 C46.686,43.072 47.033,42.961 47.330,42.753 L48.030,42.263 C48.713,41.783 48.985,40.893 48.691,40.098 C48.230,38.852 48.462,37.442 49.296,36.421 L49.978,35.589 C50.345,35.139 50.402,34.495 50.118,33.985 C49.328,32.564 49.534,30.812 50.631,29.625 L51.037,29.186 C51.416,28.776 51.519,28.175 51.299,27.656 L51.019,26.993 C50.529,25.835 50.647,24.518 51.333,23.470 L51.384,23.391 C52.027,22.410 51.895,21.102 51.073,20.279 ZM8.868,42.001 C7.973,42.001 7.247,41.254 7.247,40.333 C7.247,39.412 7.973,38.666 8.868,38.666 C9.764,38.666 10.490,39.412 10.490,40.333 C10.490,41.254 9.764,42.001 8.868,42.001 Z" class="cls-1"/>
</svg>
