<svg xmlns="http://www.w3.org/2000/svg" xmlns:xlink="http://www.w3.org/1999/xlink" preserveAspectRatio="xMidYMid" width="102" height="78" viewBox="0 0 68 52">
  <defs>
    <style>
      .cls-1 {
        fill: #00d661;
        fill-rule: evenodd;
      }
    </style>
  </defs>
  <path d="M63.981,43.911 L42.879,43.911 L42.879,49.304 L47.558,49.304 C48.203,49.304 48.726,49.821 48.726,50.459 L48.726,50.844 C48.726,51.482 48.203,52.000 47.558,52.000 L28.475,52.000 C27.830,52.000 27.307,51.482 27.307,50.844 L27.307,50.459 C27.307,49.821 27.830,49.304 28.475,49.304 L33.143,49.304 L33.143,43.911 L19.527,43.911 L19.527,48.507 C19.527,50.325 18.032,51.804 16.194,51.804 L3.332,51.804 C1.494,51.804 -0.001,50.325 -0.001,48.507 L-0.001,22.488 C-0.001,20.670 1.494,19.191 3.332,19.191 L7.635,19.191 L7.635,3.972 C7.635,1.778 9.433,-0.000 11.651,-0.000 L63.981,-0.000 C66.200,-0.000 67.998,1.778 67.998,3.972 L67.998,39.938 C67.998,42.132 66.200,43.911 63.981,43.911 ZM1.947,48.507 C1.947,49.263 2.568,49.877 3.332,49.877 L16.194,49.877 C16.959,49.877 17.580,49.263 17.580,48.507 L17.580,46.222 L1.947,46.222 L1.947,48.507 ZM1.947,44.296 L17.580,44.296 L17.580,24.652 L1.947,24.652 L1.947,44.296 ZM3.332,21.118 C2.568,21.118 1.947,21.732 1.947,22.488 L1.947,22.726 L17.580,22.726 L17.580,22.488 C17.580,21.732 16.959,21.118 16.194,21.118 L3.332,21.118 ZM66.050,4.036 C66.050,2.876 65.090,1.926 63.916,1.926 L11.716,1.926 C10.543,1.926 9.582,2.876 9.582,4.036 L9.582,19.191 L16.194,19.191 C18.032,19.191 19.527,20.670 19.527,22.488 L19.527,35.052 L66.050,35.052 L66.050,4.036 ZM66.050,36.978 L19.527,36.978 L19.527,41.985 L63.259,41.985 C64.801,41.985 66.050,40.749 66.050,39.225 L66.050,36.978 ZM37.816,41.407 C36.743,41.407 35.869,40.543 35.869,39.481 C35.869,38.419 36.743,37.555 37.816,37.555 C38.890,37.555 39.764,38.419 39.764,39.481 C39.764,40.543 38.890,41.407 37.816,41.407 ZM37.816,38.518 C37.280,38.518 36.843,38.950 36.843,39.481 C36.843,40.012 37.280,40.444 37.816,40.444 C38.353,40.444 38.790,40.012 38.790,39.481 C38.790,38.950 38.353,38.518 37.816,38.518 ZM14.256,22.340 L13.087,22.340 C12.872,22.340 12.698,22.168 12.698,21.956 C12.698,21.743 12.872,21.570 13.087,21.570 L14.256,21.570 C14.471,21.570 14.645,21.743 14.645,21.956 C14.645,22.168 14.471,22.340 14.256,22.340 ZM11.140,22.340 L8.804,22.340 C8.589,22.340 8.414,22.168 8.414,21.956 C8.414,21.743 8.589,21.570 8.804,21.570 L11.140,21.570 C11.355,21.570 11.530,21.743 11.530,21.956 C11.530,22.168 11.355,22.340 11.140,22.340 ZM9.763,49.189 C9.156,49.189 8.663,48.701 8.663,48.101 C8.663,47.501 9.156,47.013 9.763,47.013 C10.370,47.013 10.863,47.501 10.863,48.101 C10.863,48.701 10.370,49.189 9.763,49.189 ZM9.763,47.557 C9.460,47.557 9.213,47.801 9.213,48.101 C9.213,48.401 9.460,48.645 9.763,48.645 C10.067,48.645 10.313,48.401 10.313,48.101 C10.313,47.801 10.067,47.557 9.763,47.557 Z" class="cls-1"/>
</svg>
