<svg xmlns="http://www.w3.org/2000/svg" xmlns:xlink="http://www.w3.org/1999/xlink" preserveAspectRatio="xMidYMid" width="75" height="94.5" viewBox="0 0 50 63">
  <defs>
    <style>
      .cls-1 {
        fill: #00d661;
        fill-rule: evenodd;
      }
    </style>
  </defs>
  <path d="M46.632,61.343 L45.667,63.002 L44.709,61.338 C42.614,57.695 39.581,54.754 35.907,52.753 C35.641,53.379 35.364,54.003 35.069,54.621 L34.768,55.254 L15.232,55.254 L14.932,54.616 C14.643,54.004 14.372,53.386 14.111,52.766 C10.425,54.772 7.387,57.709 5.294,61.340 L4.337,62.998 L3.373,61.344 C1.165,57.559 -0.001,53.242 -0.001,48.859 C-0.001,40.635 4.030,32.980 10.795,28.274 C11.330,24.088 12.425,19.983 14.043,16.070 L14.041,16.070 L14.060,16.027 C14.456,15.073 14.880,14.130 15.338,13.200 C17.220,9.284 19.726,5.608 22.827,2.240 C23.163,1.872 23.513,1.514 23.863,1.155 C23.983,1.033 24.095,0.907 24.216,0.786 L25.002,-0.001 L25.787,0.786 C25.800,0.798 25.811,0.812 25.824,0.824 C33.432,8.411 38.017,18.169 39.295,28.382 C46.007,33.079 50.005,40.690 50.005,48.859 C50.005,53.294 48.870,57.493 46.632,61.343 ZM12.198,47.283 C12.087,46.893 11.981,46.502 11.880,46.110 C11.839,45.950 11.801,45.789 11.761,45.629 C10.850,41.920 10.380,38.110 10.380,34.238 C10.380,33.263 10.410,32.281 10.471,31.301 C5.265,35.630 2.220,42.033 2.220,48.859 C2.220,52.222 2.975,55.543 4.416,58.566 C6.686,55.260 9.713,52.562 13.288,50.667 C13.250,50.561 13.217,50.454 13.179,50.348 C13.021,49.906 12.868,49.463 12.724,49.017 C12.632,48.735 12.545,48.452 12.458,48.168 C12.368,47.873 12.281,47.578 12.198,47.283 ZM25.001,3.167 C24.935,3.237 24.875,3.312 24.809,3.382 C24.204,4.026 23.625,4.683 23.066,5.350 C22.619,5.887 22.194,6.437 21.775,6.991 C21.635,7.175 21.491,7.358 21.354,7.544 C20.883,8.187 20.431,8.840 19.998,9.504 C19.933,9.603 19.869,9.702 19.805,9.801 C19.374,10.472 18.962,11.153 18.569,11.843 C18.444,12.064 18.327,12.289 18.207,12.512 C17.966,12.953 17.732,13.397 17.506,13.845 L32.491,13.845 C30.496,9.894 27.984,6.312 25.001,3.167 ZM37.396,32.623 C37.375,32.032 37.341,31.442 37.296,30.853 C37.266,30.452 37.238,30.051 37.197,29.651 C36.717,24.977 35.505,20.392 33.606,16.070 L16.462,16.070 C12.737,24.579 11.666,34.114 13.518,43.316 C13.522,43.334 13.526,43.351 13.530,43.369 C13.749,44.451 14.007,45.527 14.307,46.597 C14.309,46.605 14.311,46.613 14.313,46.620 C14.581,47.574 14.894,48.520 15.227,49.462 C15.320,49.723 15.415,49.985 15.513,50.245 C15.863,51.180 16.231,52.110 16.646,53.029 L33.361,53.029 C33.767,52.141 34.126,51.241 34.471,50.337 C34.639,49.893 34.796,49.444 34.950,48.995 C35.122,48.499 35.284,48.000 35.438,47.500 C35.600,46.970 35.758,46.439 35.901,45.904 C36.006,45.508 36.098,45.109 36.192,44.711 C36.337,44.101 36.486,43.491 36.605,42.876 C36.625,42.775 36.637,42.673 36.656,42.572 C36.925,41.134 37.114,39.684 37.244,38.227 C37.273,37.896 37.312,37.565 37.334,37.233 C37.372,36.667 37.386,36.099 37.402,35.531 C37.416,35.053 37.429,34.574 37.427,34.096 C37.426,33.605 37.413,33.114 37.396,32.623 ZM39.578,31.382 C39.578,31.387 39.578,31.392 39.578,31.397 C39.627,32.204 39.652,33.013 39.660,33.823 C39.660,33.832 39.660,33.842 39.660,33.851 C39.710,39.465 38.763,45.122 36.773,50.548 C36.760,50.584 36.750,50.621 36.736,50.657 C40.300,52.548 43.321,55.249 45.590,58.565 C47.046,55.524 47.783,52.267 47.783,48.859 C47.783,42.071 44.755,35.698 39.578,31.382 ZM29.665,30.961 C28.403,32.225 26.715,32.910 24.963,32.910 C24.478,32.910 23.987,32.857 23.499,32.750 C20.952,32.141 19.016,30.187 18.548,27.768 C18.059,25.541 18.727,23.232 20.339,21.617 C21.950,20.002 24.255,19.333 26.504,19.827 C28.975,20.418 30.861,22.308 31.446,24.763 L31.450,24.783 C31.944,27.037 31.276,29.346 29.665,30.961 ZM29.283,25.270 C28.890,23.640 27.637,22.386 26.008,21.997 C25.677,21.924 25.345,21.888 25.018,21.888 C23.860,21.888 22.759,22.339 21.910,23.191 C20.820,24.282 20.388,25.786 20.723,27.317 C21.031,28.908 22.313,30.178 23.995,30.580 C25.502,30.911 27.004,30.478 28.094,29.387 C29.181,28.298 29.614,26.798 29.283,25.270 Z" class="cls-1"/>
</svg>
