<svg xmlns="http://www.w3.org/2000/svg" xmlns:xlink="http://www.w3.org/1999/xlink" preserveAspectRatio="xMidYMid" width="84" height="82.5" viewBox="0 0 56 55">
  <defs>
    <style>
      .cls-1 {
        fill: #00d661;
        fill-rule: evenodd;
      }
    </style>
  </defs>
  <path d="M56.006,50.340 C56.006,52.913 53.901,55.006 51.314,55.006 L4.686,55.006 C2.099,55.006 -0.006,52.913 -0.006,50.340 L-0.006,39.871 C-0.006,38.434 0.665,37.163 1.696,36.306 C0.665,35.449 -0.006,34.178 -0.006,32.741 L-0.006,22.272 C-0.006,20.835 0.665,19.563 1.696,18.707 C0.665,17.850 -0.006,16.579 -0.006,15.141 L-0.006,4.672 C-0.006,2.100 2.099,0.006 4.686,0.006 L51.314,0.006 C53.901,0.006 56.006,2.100 56.006,4.672 L56.006,15.141 C56.006,16.579 55.335,17.850 54.304,18.707 C55.335,19.563 56.006,20.835 56.006,22.272 L56.006,32.741 C56.006,34.178 55.335,35.449 54.304,36.306 C55.335,37.163 56.006,38.434 56.006,39.871 L56.006,50.340 ZM53.776,4.672 C53.776,3.322 52.672,2.224 51.314,2.224 L4.686,2.224 C3.328,2.224 2.224,3.322 2.224,4.672 L2.224,15.141 C2.224,16.491 3.328,17.590 4.686,17.590 L51.314,17.590 C52.672,17.590 53.776,16.491 53.776,15.141 L53.776,4.672 ZM53.776,22.272 C53.776,20.922 52.672,19.824 51.314,19.824 L4.686,19.824 C3.328,19.824 2.224,20.922 2.224,22.272 L2.224,32.741 C2.224,34.091 3.328,35.189 4.686,35.189 L51.314,35.189 C52.672,35.189 53.776,34.091 53.776,32.741 L53.776,22.272 ZM53.776,39.871 C53.776,38.521 52.672,37.423 51.314,37.423 L4.686,37.423 C3.328,37.423 2.224,38.521 2.224,39.871 L2.224,50.340 C2.224,51.690 3.328,52.789 4.686,52.789 L51.314,52.789 C52.672,52.789 53.776,51.690 53.776,50.340 L53.776,39.871 ZM49.942,47.428 C49.427,47.428 49.009,47.013 49.009,46.500 C49.009,45.987 49.427,45.571 49.942,45.571 C50.458,45.571 50.876,45.987 50.876,46.500 C50.876,47.013 50.458,47.428 49.942,47.428 ZM48.448,44.456 C47.933,44.456 47.515,44.040 47.515,43.528 C47.515,43.015 47.933,42.599 48.448,42.599 C48.964,42.599 49.382,43.015 49.382,43.528 C49.382,44.040 48.964,44.456 48.448,44.456 ZM47.888,46.500 C47.888,47.013 47.470,47.428 46.954,47.428 C46.439,47.428 46.021,47.013 46.021,46.500 C46.021,45.987 46.439,45.571 46.954,45.571 C47.470,45.571 47.888,45.987 47.888,46.500 ZM45.460,44.456 C44.945,44.456 44.527,44.040 44.527,43.528 C44.527,43.015 44.945,42.599 45.460,42.599 C45.976,42.599 46.394,43.015 46.394,43.528 C46.394,44.040 45.976,44.456 45.460,44.456 ZM44.900,46.500 C44.900,47.013 44.482,47.428 43.966,47.428 C43.451,47.428 43.033,47.013 43.033,46.500 C43.033,45.987 43.451,45.571 43.966,45.571 C44.482,45.571 44.900,45.987 44.900,46.500 ZM42.473,44.456 C41.957,44.456 41.539,44.040 41.539,43.528 C41.539,43.015 41.957,42.599 42.473,42.599 C42.988,42.599 43.406,43.015 43.406,43.528 C43.406,44.040 42.988,44.456 42.473,44.456 ZM41.912,46.500 C41.912,47.013 41.494,47.428 40.979,47.428 C40.463,47.428 40.045,47.013 40.045,46.500 C40.045,45.987 40.463,45.571 40.979,45.571 C41.494,45.571 41.912,45.987 41.912,46.500 ZM39.485,44.456 C38.969,44.456 38.551,44.040 38.551,43.528 C38.551,43.015 38.969,42.599 39.485,42.599 C40.000,42.599 40.418,43.015 40.418,43.528 C40.418,44.040 40.000,44.456 39.485,44.456 ZM38.924,46.500 C38.924,47.013 38.507,47.428 37.991,47.428 C37.475,47.428 37.057,47.013 37.057,46.500 C37.057,45.987 37.475,45.571 37.991,45.571 C38.507,45.571 38.924,45.987 38.924,46.500 ZM36.497,44.456 C35.981,44.456 35.563,44.040 35.563,43.528 C35.563,43.015 35.981,42.599 36.497,42.599 C37.012,42.599 37.431,43.015 37.431,43.528 C37.431,44.040 37.012,44.456 36.497,44.456 ZM35.937,46.500 C35.937,47.013 35.519,47.428 35.003,47.428 C34.487,47.428 34.069,47.013 34.069,46.500 C34.069,45.987 34.487,45.571 35.003,45.571 C35.519,45.571 35.937,45.987 35.937,46.500 ZM33.509,44.456 C32.993,44.456 32.575,44.040 32.575,43.528 C32.575,43.015 32.993,42.599 33.509,42.599 C34.025,42.599 34.443,43.015 34.443,43.528 C34.443,44.040 34.025,44.456 33.509,44.456 ZM10.073,49.652 C7.605,49.652 5.597,47.655 5.597,45.199 C5.597,42.744 7.605,40.747 10.073,40.747 C12.541,40.747 14.549,42.744 14.549,45.199 C14.549,47.655 12.541,49.652 10.073,49.652 ZM10.073,42.965 C8.834,42.965 7.826,43.967 7.826,45.199 C7.826,46.431 8.834,47.434 10.073,47.434 C11.312,47.434 12.320,46.431 12.320,45.199 C12.320,43.967 11.312,42.965 10.073,42.965 ZM49.942,30.340 C49.427,30.340 49.009,29.924 49.009,29.411 C49.009,28.898 49.427,28.482 49.942,28.482 C50.458,28.482 50.876,28.898 50.876,29.411 C50.876,29.924 50.458,30.340 49.942,30.340 ZM48.448,27.367 C47.933,27.367 47.515,26.952 47.515,26.439 C47.515,25.926 47.933,25.510 48.448,25.510 C48.964,25.510 49.382,25.926 49.382,26.439 C49.382,26.952 48.964,27.367 48.448,27.367 ZM47.888,29.411 C47.888,29.924 47.470,30.340 46.954,30.340 C46.439,30.340 46.021,29.924 46.021,29.411 C46.021,28.898 46.439,28.482 46.954,28.482 C47.470,28.482 47.888,28.898 47.888,29.411 ZM45.460,27.367 C44.945,27.367 44.527,26.952 44.527,26.439 C44.527,25.926 44.945,25.510 45.460,25.510 C45.976,25.510 46.394,25.926 46.394,26.439 C46.394,26.952 45.976,27.367 45.460,27.367 ZM44.900,29.411 C44.900,29.924 44.482,30.340 43.966,30.340 C43.451,30.340 43.033,29.924 43.033,29.411 C43.033,28.898 43.451,28.482 43.966,28.482 C44.482,28.482 44.900,28.898 44.900,29.411 ZM42.473,27.367 C41.957,27.367 41.539,26.952 41.539,26.439 C41.539,25.926 41.957,25.510 42.473,25.510 C42.988,25.510 43.406,25.926 43.406,26.439 C43.406,26.952 42.988,27.367 42.473,27.367 ZM41.912,29.411 C41.912,29.924 41.494,30.340 40.979,30.340 C40.463,30.340 40.045,29.924 40.045,29.411 C40.045,28.898 40.463,28.482 40.979,28.482 C41.494,28.482 41.912,28.898 41.912,29.411 ZM39.485,27.367 C38.969,27.367 38.551,26.952 38.551,26.439 C38.551,25.926 38.969,25.510 39.485,25.510 C40.000,25.510 40.418,25.926 40.418,26.439 C40.418,26.952 40.000,27.367 39.485,27.367 ZM38.924,29.411 C38.924,29.924 38.507,30.340 37.991,30.340 C37.475,30.340 37.057,29.924 37.057,29.411 C37.057,28.898 37.475,28.482 37.991,28.482 C38.507,28.482 38.924,28.898 38.924,29.411 ZM36.497,27.367 C35.981,27.367 35.563,26.952 35.563,26.439 C35.563,25.926 35.981,25.510 36.497,25.510 C37.012,25.510 37.431,25.926 37.431,26.439 C37.431,26.952 37.012,27.367 36.497,27.367 ZM35.937,29.411 C35.937,29.924 35.519,30.340 35.003,30.340 C34.487,30.340 34.069,29.924 34.069,29.411 C34.069,28.898 34.487,28.482 35.003,28.482 C35.519,28.482 35.937,28.898 35.937,29.411 ZM33.509,27.367 C32.993,27.367 32.575,26.952 32.575,26.439 C32.575,25.926 32.993,25.510 33.509,25.510 C34.025,25.510 34.443,25.926 34.443,26.439 C34.443,26.952 34.025,27.367 33.509,27.367 ZM10.073,32.191 C7.605,32.191 5.597,30.194 5.597,27.739 C5.597,25.284 7.605,23.287 10.073,23.287 C12.541,23.287 14.549,25.284 14.549,27.739 C14.549,30.194 12.541,32.191 10.073,32.191 ZM10.073,25.504 C8.834,25.504 7.826,26.507 7.826,27.739 C7.826,28.971 8.834,29.974 10.073,29.974 C11.312,29.974 12.320,28.971 12.320,27.739 C12.320,26.507 11.312,25.504 10.073,25.504 ZM49.942,12.507 C49.427,12.507 49.009,12.092 49.009,11.579 C49.009,11.066 49.427,10.650 49.942,10.650 C50.458,10.650 50.876,11.066 50.876,11.579 C50.876,12.092 50.458,12.507 49.942,12.507 ZM48.448,9.536 C47.933,9.536 47.515,9.120 47.515,8.607 C47.515,8.094 47.933,7.678 48.448,7.678 C48.964,7.678 49.382,8.094 49.382,8.607 C49.382,9.120 48.964,9.536 48.448,9.536 ZM47.888,11.579 C47.888,12.092 47.470,12.507 46.954,12.507 C46.439,12.507 46.021,12.092 46.021,11.579 C46.021,11.066 46.439,10.650 46.954,10.650 C47.470,10.650 47.888,11.066 47.888,11.579 ZM45.460,9.536 C44.945,9.536 44.527,9.120 44.527,8.607 C44.527,8.094 44.945,7.678 45.460,7.678 C45.976,7.678 46.394,8.094 46.394,8.607 C46.394,9.120 45.976,9.536 45.460,9.536 ZM44.900,11.579 C44.900,12.092 44.482,12.507 43.966,12.507 C43.451,12.507 43.033,12.092 43.033,11.579 C43.033,11.066 43.451,10.650 43.966,10.650 C44.482,10.650 44.900,11.066 44.900,11.579 ZM42.473,9.536 C41.957,9.536 41.539,9.120 41.539,8.607 C41.539,8.094 41.957,7.678 42.473,7.678 C42.988,7.678 43.406,8.094 43.406,8.607 C43.406,9.120 42.988,9.536 42.473,9.536 ZM41.912,11.579 C41.912,12.092 41.494,12.507 40.979,12.507 C40.463,12.507 40.045,12.092 40.045,11.579 C40.045,11.066 40.463,10.650 40.979,10.650 C41.494,10.650 41.912,11.066 41.912,11.579 ZM39.485,9.536 C38.969,9.536 38.551,9.120 38.551,8.607 C38.551,8.094 38.969,7.678 39.485,7.678 C40.000,7.678 40.418,8.094 40.418,8.607 C40.418,9.120 40.000,9.536 39.485,9.536 ZM38.924,11.579 C38.924,12.092 38.507,12.507 37.991,12.507 C37.475,12.507 37.057,12.092 37.057,11.579 C37.057,11.066 37.475,10.650 37.991,10.650 C38.507,10.650 38.924,11.066 38.924,11.579 ZM36.497,9.536 C35.981,9.536 35.563,9.120 35.563,8.607 C35.563,8.094 35.981,7.678 36.497,7.678 C37.012,7.678 37.431,8.094 37.431,8.607 C37.431,9.120 37.012,9.536 36.497,9.536 ZM35.937,11.579 C35.937,12.092 35.519,12.507 35.003,12.507 C34.487,12.507 34.069,12.092 34.069,11.579 C34.069,11.066 34.487,10.650 35.003,10.650 C35.519,10.650 35.937,11.066 35.937,11.579 ZM33.509,9.536 C32.993,9.536 32.575,9.120 32.575,8.607 C32.575,8.094 32.993,7.678 33.509,7.678 C34.025,7.678 34.443,8.094 34.443,8.607 C34.443,9.120 34.025,9.536 33.509,9.536 ZM10.073,14.359 C7.605,14.359 5.597,12.362 5.597,9.907 C5.597,7.452 7.605,5.455 10.073,5.455 C12.541,5.455 14.549,7.452 14.549,9.907 C14.549,12.362 12.541,14.359 10.073,14.359 ZM10.073,7.673 C8.834,7.673 7.826,8.675 7.826,9.907 C7.826,11.139 8.834,12.142 10.073,12.142 C11.312,12.142 12.320,11.139 12.320,9.907 C12.320,8.675 11.312,7.673 10.073,7.673 Z" class="cls-1"/>
</svg>
