<svg xmlns="http://www.w3.org/2000/svg" xmlns:xlink="http://www.w3.org/1999/xlink" preserveAspectRatio="xMidYMid" width="76.5" height="102" viewBox="0 0 51 68">
  <defs>
    <style>
      .cls-1 {
        fill: #00d661;
        fill-rule: evenodd;
      }
    </style>
  </defs>
  <path d="M49.528,39.702 L43.064,39.702 L42.325,65.802 C42.483,65.810 42.588,65.817 42.588,65.817 L42.588,68.000 L36.076,68.000 C36.076,68.000 36.441,66.316 38.045,65.911 L38.045,36.734 L35.165,36.686 L34.753,65.797 C34.970,65.808 35.096,65.817 35.096,65.817 L35.096,68.000 L28.584,68.000 C28.584,68.000 28.923,66.393 30.424,65.936 L29.442,39.702 L1.470,39.702 C0.659,39.702 -0.000,39.039 -0.000,38.224 L-0.000,38.180 L-0.000,35.369 L-0.000,1.478 C-0.000,0.663 0.659,-0.001 1.470,-0.001 L49.528,-0.001 C50.339,-0.001 50.999,0.663 50.999,1.478 L50.999,35.369 L50.999,38.180 L50.999,38.224 C50.999,39.039 50.339,39.702 49.528,39.702 ZM41.910,25.784 C42.368,24.659 42.655,23.402 42.513,23.114 C42.322,22.875 41.998,22.612 41.681,22.386 L40.901,25.417 L41.519,26.264 L41.910,25.784 ZM31.655,65.121 L33.502,65.121 L33.923,35.397 L39.305,35.489 L39.305,65.027 L41.088,64.965 L42.100,29.216 C41.837,28.986 41.634,28.702 41.496,28.372 L39.530,25.682 L40.602,21.522 C40.548,21.360 40.556,21.178 40.645,21.017 C40.677,20.959 40.723,20.915 40.769,20.871 L41.636,17.505 C41.723,17.166 42.066,16.964 42.404,17.051 C42.741,17.138 42.944,17.484 42.856,17.823 L42.017,21.084 C42.472,21.379 43.115,21.844 43.509,22.338 C44.226,23.239 43.418,25.450 43.037,26.359 L43.002,26.444 L42.469,27.098 L42.571,27.662 C42.578,27.698 42.597,27.718 42.606,27.751 L43.058,28.370 C43.203,28.455 43.343,28.501 43.413,28.514 C43.580,28.545 44.153,28.605 44.507,28.031 L46.516,24.781 L43.099,15.960 C42.787,15.155 42.031,14.636 41.173,14.636 L33.006,14.636 C32.690,14.636 32.386,14.770 32.172,15.003 L26.954,20.699 C26.850,20.806 24.675,22.960 20.489,21.058 C20.193,20.923 19.939,20.813 19.677,20.698 L19.677,23.003 C20.404,23.322 21.215,23.672 22.109,24.054 C22.539,24.239 22.998,24.330 23.462,24.314 L25.561,24.261 C26.221,24.244 26.847,24.023 27.372,23.621 L30.608,21.148 C30.608,21.148 30.608,21.148 30.608,21.148 L34.074,18.497 C34.351,18.285 34.747,18.339 34.958,18.618 C35.168,18.897 35.114,19.294 34.838,19.506 L31.719,21.891 L32.841,25.994 L30.349,30.219 L31.655,65.121 ZM34.781,13.369 L38.527,13.369 L38.527,10.852 L38.434,10.935 L38.126,10.875 C36.967,10.647 35.708,9.810 34.781,8.728 L34.781,13.369 ZM15.669,19.435 C15.531,19.661 15.450,20.123 15.559,20.577 C15.615,20.814 15.744,21.133 16.036,21.312 C16.308,21.480 17.156,21.881 18.416,22.445 L18.416,20.162 C16.496,19.384 15.839,19.313 15.669,19.435 ZM1.680,37.968 L29.378,37.968 L29.288,35.580 L1.680,35.580 L1.680,37.968 ZM49.318,1.689 L1.680,1.689 L1.680,33.890 L29.225,33.890 L29.075,29.893 L31.484,25.810 L30.638,22.717 L28.135,24.631 C27.398,25.194 26.519,25.504 25.593,25.528 L23.494,25.581 C22.848,25.605 22.213,25.477 21.616,25.221 C19.606,24.362 16.124,22.852 15.379,22.394 C14.863,22.077 14.492,21.537 14.333,20.873 C14.213,20.369 14.232,19.826 14.360,19.357 L10.627,16.891 C10.336,16.699 10.255,16.306 10.446,16.013 C10.638,15.721 11.029,15.640 11.319,15.831 L15.088,18.322 C16.019,17.816 17.769,18.430 21.009,19.903 C24.402,21.445 26.026,19.841 26.041,19.825 L31.245,14.144 C31.698,13.651 32.339,13.369 33.006,13.369 L33.521,13.369 L33.521,11.418 L32.745,11.418 C32.432,11.418 32.148,11.219 32.041,10.923 C31.933,10.627 32.021,10.292 32.261,10.088 L33.521,9.017 L33.521,8.044 C33.521,7.912 33.523,7.789 33.527,7.675 C33.516,7.600 33.519,7.522 33.538,7.444 C33.583,6.767 33.722,6.449 34.019,6.318 C34.427,5.658 35.099,5.061 36.034,4.900 C36.291,3.261 37.693,2.000 39.395,2.000 C41.277,2.000 42.808,3.540 42.808,5.433 C42.808,7.170 41.513,8.595 39.846,8.819 C39.832,8.881 39.806,8.940 39.788,9.001 L39.788,13.369 L41.173,13.369 C42.554,13.369 43.771,14.205 44.273,15.499 L47.919,24.911 L45.578,28.700 C45.148,29.397 44.409,29.801 43.619,29.801 C43.528,29.801 43.436,29.786 43.345,29.775 L43.228,33.890 L49.318,33.890 L49.318,1.689 ZM49.318,35.580 L43.180,35.580 L43.113,37.968 L49.318,37.968 L49.318,35.580 Z" class="cls-1"/>
</svg>
