<svg xmlns="http://www.w3.org/2000/svg" xmlns:xlink="http://www.w3.org/1999/xlink" preserveAspectRatio="xMidYMid" width="64.172" height="63.893" viewBox="0 0 42.781 42.595">
  <defs>
    <style>
      .cls-1 {
        fill: #00d661;
        fill-rule: evenodd;
      }
    </style>
  </defs>
  <path d="M37.373,35.429 C40.725,31.668 42.766,26.724 42.766,21.312 C42.766,15.682 40.556,10.559 36.960,6.747 L36.960,6.746 C36.957,6.741 36.953,6.740 36.951,6.736 C33.205,2.771 27.957,0.233 22.119,0.034 L22.118,0.034 L21.702,0.023 C21.594,0.019 21.486,0.015 21.378,0.015 C21.270,0.015 21.162,0.019 21.054,0.023 L20.639,0.034 L20.638,0.034 C14.801,0.233 9.553,2.771 5.807,6.736 C5.804,6.740 5.799,6.741 5.797,6.746 C5.797,6.746 5.797,6.747 5.797,6.747 C2.200,10.559 -0.010,15.682 -0.010,21.312 C-0.010,26.724 2.032,31.668 5.383,35.429 C5.387,35.435 5.387,35.443 5.392,35.449 C5.406,35.468 5.425,35.476 5.439,35.493 C9.205,39.685 14.608,42.385 20.638,42.591 L20.638,42.592 L21.054,42.603 C21.162,42.606 21.270,42.609 21.378,42.609 C21.486,42.609 21.594,42.606 21.702,42.602 L22.117,42.591 L22.118,42.590 C28.154,42.384 33.563,39.678 37.329,35.478 C37.339,35.465 37.354,35.462 37.363,35.449 C37.369,35.443 37.369,35.435 37.373,35.429 ZM1.484,22.047 L10.336,22.047 C10.419,25.160 11.030,28.185 12.117,31.019 C10.019,31.774 8.014,32.788 6.135,34.052 C3.372,30.779 1.652,26.607 1.484,22.047 ZM6.538,8.110 C8.373,9.299 10.326,10.250 12.364,10.961 C11.116,13.977 10.426,17.229 10.336,20.578 L1.484,20.578 C1.660,15.799 3.539,11.448 6.538,8.110 ZM41.273,20.578 L32.420,20.578 C32.330,17.229 31.640,13.977 30.392,10.961 C32.430,10.250 34.383,9.299 36.218,8.110 C39.217,11.448 41.096,15.799 41.273,20.578 ZM20.641,11.004 C18.508,10.944 16.415,10.627 14.393,10.062 C15.888,7.008 17.999,4.252 20.641,1.957 L20.641,11.004 ZM20.641,12.473 L20.641,20.578 L11.811,20.578 C11.902,17.385 12.574,14.288 13.777,11.416 C15.994,12.056 18.296,12.410 20.641,12.473 ZM22.116,12.473 C24.460,12.410 26.762,12.057 28.980,11.416 C30.182,14.288 30.855,17.385 30.946,20.578 L22.116,20.578 L22.116,12.473 ZM22.116,11.004 L22.116,1.957 C24.757,4.252 26.868,7.008 28.363,10.062 C26.341,10.627 24.248,10.944 22.116,11.004 ZM29.792,9.615 C28.376,6.659 26.409,3.966 23.975,1.658 C28.294,2.221 32.180,4.165 35.173,7.032 C33.473,8.106 31.671,8.969 29.792,9.615 ZM12.964,9.615 C11.085,8.969 9.283,8.106 7.584,7.032 C10.576,4.165 14.463,2.221 18.782,1.658 C16.347,3.966 14.381,6.659 12.964,9.615 ZM11.811,22.047 L20.641,22.047 L20.641,29.418 C18.202,29.483 15.812,29.862 13.515,30.550 C12.478,27.866 11.894,24.998 11.811,22.047 ZM20.641,30.887 L20.641,40.668 C17.813,38.212 15.596,35.226 14.089,31.916 C16.203,31.296 18.399,30.950 20.641,30.887 ZM22.116,40.668 L22.116,30.887 C24.357,30.950 26.553,31.296 28.668,31.916 C27.160,35.226 24.943,38.212 22.116,40.668 ZM22.116,29.418 L22.116,22.047 L30.945,22.047 C30.862,24.998 30.278,27.866 29.240,30.551 C26.944,29.862 24.555,29.483 22.116,29.418 ZM32.420,22.047 L41.273,22.047 C41.104,26.607 39.385,30.779 36.621,34.052 C34.742,32.788 32.736,31.774 30.639,31.019 C31.727,28.185 32.337,25.160 32.420,22.047 ZM7.137,35.152 C8.882,33.998 10.740,33.070 12.681,32.376 C14.116,35.578 16.175,38.496 18.781,40.967 C14.245,40.376 10.185,38.260 7.137,35.152 ZM23.975,40.967 C26.581,38.496 28.640,35.578 30.075,32.376 C32.016,33.070 33.873,33.998 35.619,35.152 C32.571,38.260 28.511,40.376 23.975,40.967 Z" class="cls-1"/>
</svg>
