<svg xmlns="http://www.w3.org/2000/svg" xmlns:xlink="http://www.w3.org/1999/xlink" preserveAspectRatio="xMidYMid" width="100.454" height="87" viewBox="0 0 66.969 58">
  <defs>
    <style>
      .cls-1 {
        fill: #00d661;
        fill-rule: evenodd;
      }
    </style>
  </defs>
  <path d="M64.422,37.700 C62.433,40.447 58.736,43.722 52.421,43.722 L52.126,43.722 L52.126,55.924 C52.126,57.073 51.179,58.009 50.014,58.009 L31.445,58.009 C30.280,58.009 29.332,57.073 29.332,55.924 L29.332,43.722 L14.562,43.722 C11.620,43.722 8.816,42.977 6.454,41.567 C3.389,39.738 1.377,37.124 0.475,33.800 C-1.500,26.523 2.794,19.020 10.050,17.055 C10.002,15.293 10.352,11.608 13.734,9.165 C15.705,7.741 18.151,7.105 20.622,7.373 C22.426,7.569 23.946,8.224 25.080,9.284 C26.851,6.018 32.438,-1.969 43.720,0.432 C43.807,0.446 55.886,2.731 56.651,17.085 C59.100,17.938 66.273,21.084 66.945,28.748 C67.221,31.893 66.325,35.072 64.422,37.700 ZM31.297,55.924 C31.297,56.004 31.363,56.069 31.445,56.069 L50.014,56.069 C50.095,56.069 50.161,56.004 50.161,55.924 L50.161,20.821 C50.161,20.741 50.095,20.676 50.014,20.676 L31.445,20.676 C31.363,20.676 31.297,20.741 31.297,20.821 L31.297,55.924 ZM64.988,28.915 C64.403,22.246 57.851,19.537 55.856,18.866 C55.184,18.640 54.728,18.037 54.695,17.330 C54.085,4.421 43.777,2.413 43.339,2.334 C32.395,0.004 27.596,8.414 26.385,11.047 C26.203,11.442 25.819,11.715 25.384,11.761 C24.949,11.808 24.514,11.621 24.251,11.273 C23.403,10.149 22.110,9.486 20.407,9.301 C20.109,9.269 19.812,9.252 19.516,9.252 C17.846,9.252 16.232,9.764 14.894,10.730 C12.078,12.765 11.949,15.970 12.025,17.254 C12.069,17.997 11.564,18.672 10.824,18.859 L10.600,18.917 C4.365,20.588 0.674,27.039 2.373,33.298 C3.139,36.122 4.855,38.346 7.471,39.908 C9.526,41.134 11.978,41.783 14.562,41.783 L29.332,41.783 L29.332,20.821 C29.332,19.672 30.280,18.736 31.445,18.736 L50.014,18.736 C51.179,18.736 52.126,19.672 52.126,20.821 L52.126,41.783 L52.421,41.783 C57.900,41.783 61.102,38.949 62.823,36.572 C64.454,34.320 65.223,31.600 64.988,28.915 ZM35.582,33.379 L46.073,33.379 C46.540,33.379 46.919,33.813 46.919,34.348 C46.919,34.884 46.540,35.318 46.073,35.318 L35.582,35.318 C35.115,35.318 34.736,34.884 34.736,34.348 C34.736,33.813 35.115,33.379 35.582,33.379 ZM35.582,38.809 L46.073,38.809 C46.540,38.809 46.919,39.243 46.919,39.779 C46.919,40.314 46.540,40.748 46.073,40.748 L35.582,40.748 C35.115,40.748 34.736,40.314 34.736,39.779 C34.736,39.243 35.115,38.809 35.582,38.809 ZM35.582,44.239 L46.073,44.239 C46.540,44.239 46.919,44.673 46.919,45.209 C46.919,45.744 46.540,46.178 46.073,46.178 L35.582,46.178 C35.115,46.178 34.736,45.744 34.736,45.209 C34.736,44.673 35.115,44.239 35.582,44.239 ZM35.582,49.669 L46.073,49.669 C46.540,49.669 46.919,50.103 46.919,50.639 C46.919,51.175 46.540,51.609 46.073,51.609 L35.582,51.609 C35.115,51.609 34.736,51.175 34.736,50.639 C34.736,50.103 35.115,49.669 35.582,49.669 ZM42.792,24.264 C42.792,23.728 43.232,23.294 43.775,23.294 L48.098,23.294 C48.641,23.294 49.080,23.728 49.080,24.264 C49.080,24.799 48.641,25.233 48.098,25.233 L43.775,25.233 C43.232,25.233 42.792,24.799 42.792,24.264 Z" class="cls-1"/>
</svg>
